HIERARCHY
ROOT hip
{
  OFFSET 0 0 0
  CHANNELS 6 Xposition Yposition Zposition Zrotation Yrotation Xrotation
  JOINT abdomen
  {
    OFFSET 0 20.6881 -0.73152
    CHANNELS 3 Zrotation Xrotation Yrotation
    JOINT chest
    {
      OFFSET 0 11.7043 -0.48768
      CHANNELS 3 Zrotation Xrotation Yrotation
      JOINT neck
      {
        OFFSET 0 22.1894 -2.19456
        CHANNELS 3 Zrotation Xrotation Yrotation
        JOINT head
        {
          OFFSET -0.24384 7.07133 1.2192
          CHANNELS 3 Zrotation Xrotation Yrotation
          JOINT leftEye
          {
            OFFSET 4.14528 8.04674 8.04672
            CHANNELS 3 Zrotation Xrotation Yrotation
            End Site
            {
              OFFSET 1 0 0
            }
          }
          JOINT rightEye
          {
            OFFSET -3.6576 8.04674 8.04672
            CHANNELS 3 Zrotation Xrotation Yrotation
            End Site
            {
              OFFSET 1 0 0
            }
          }
        }
      }
      JOINT rCollar
      {
        OFFSET -2.68224 19.2634 -4.8768
        CHANNELS 3 Zrotation Xrotation Yrotation
        JOINT rShldr
        {
          OFFSET -8.77824 -1.95073 1.46304
          CHANNELS 3 Zrotation Xrotation Yrotation
          JOINT rForeArm
          {
            OFFSET -28.1742 -1.7115 0.48768
            CHANNELS 3 Zrotation Xrotation Yrotation
            JOINT rHand
            {
              OFFSET -22.5879 0.773209 7.07136
              CHANNELS 3 Zrotation Xrotation Yrotation
              JOINT rThumb1
              {
                OFFSET -1.2192 -0.487915 3.41376
                CHANNELS 3 Zrotation Xrotation Yrotation
                JOINT rThumb2
                {
                  OFFSET -3.37035 -0.52449 3.41376
                  CHANNELS 3 Zrotation Xrotation Yrotation
                  End Site
                  {
                    OFFSET -1.78271 -1.18214 1.43049
                  }
                }
              }
              JOINT rIndex1
              {
                OFFSET -7.75947 0.938293 5.60832
                CHANNELS 3 Zrotation Xrotation Yrotation
                JOINT rIndex2
                {
                  OFFSET -2.54057 -0.884171 1.56538
                  CHANNELS 3 Zrotation Xrotation Yrotation
                  End Site
                  {
                    OFFSET -1.62519 -0.234802 1.16502
                  }
                }
              }
              JOINT rMid1
              {
                OFFSET -8.24714 1.18213 3.41376
                CHANNELS 3 Zrotation Xrotation Yrotation
                JOINT rMid2
                {
                  OFFSET -3.10165 -0.590103 1.0647
                  CHANNELS 3 Zrotation Xrotation Yrotation
                  End Site
                  {
                    OFFSET -2.48547 -0.328903 0.83742
                  }
                }
              }
              JOINT rRing1
              {
                OFFSET -8.82822 0.546677 1.51678
                CHANNELS 3 Zrotation Xrotation Yrotation
                JOINT rRing2
                {
                  OFFSET -2.60934 -0.819778 -0.0198488
                  CHANNELS 3 Zrotation Xrotation Yrotation
                  End Site
                  {
                    OFFSET -2.33842 -0.294052 0.168128
                  }
                }
              }
              JOINT rPinky1
              {
                OFFSET -8.27202 -0.0477905 -0.4584
                CHANNELS 3 Zrotation Xrotation Yrotation
                JOINT rPinky2
                {
                  OFFSET -1.82734 -0.647385 -0.700984
                  CHANNELS 3 Zrotation Xrotation Yrotation
                  End Site
                  {
                    OFFSET -1.69225 -0.51767 -0.607171
                  }
                }
              }
            }
          }
        }
      }
      JOINT lCollar
      {
        OFFSET 2.68224 19.2634 -4.8768
        CHANNELS 3 Zrotation Xrotation Yrotation
        JOINT lShldr
        {
          OFFSET 8.77824 -1.95073 1.46304
          CHANNELS 3 Zrotation Xrotation Yrotation
          JOINT lForeArm
          {
            OFFSET 28.1742 -1.7115 0.48768
            CHANNELS 3 Zrotation Xrotation Yrotation
            JOINT lHand
            {
              OFFSET 22.5879 0.773209 7.07136
              CHANNELS 3 Zrotation Xrotation Yrotation
              JOINT lThumb1
              {
                OFFSET 1.2192 -0.487915 3.41376
                CHANNELS 3 Zrotation Xrotation Yrotation
                JOINT lThumb2
                {
                  OFFSET 3.37035 -0.52449 3.41376
                  CHANNELS 3 Zrotation Xrotation Yrotation
                  End Site
                  {
                    OFFSET 1.78271 -1.18214 1.43049
                  }
                }
              }
              JOINT lIndex1
              {
                OFFSET 7.75947 0.938293 5.60832
                CHANNELS 3 Zrotation Xrotation Yrotation
                JOINT lIndex2
                {
                  OFFSET 2.54057 -0.884171 1.56538
                  CHANNELS 3 Zrotation Xrotation Yrotation
                  End Site
                  {
                    OFFSET 1.62519 -0.234802 1.16502
                  }
                }
              }
              JOINT lMid1
              {
                OFFSET 8.24714 1.18213 3.41376
                CHANNELS 3 Zrotation Xrotation Yrotation
                JOINT lMid2
                {
                  OFFSET 3.10165 -0.590103 1.0647
                  CHANNELS 3 Zrotation Xrotation Yrotation
                  End Site
                  {
                    OFFSET 2.48547 -0.328903 0.83742
                  }
                }
              }
              JOINT lRing1
              {
                OFFSET 8.82822 0.546677 1.51678
                CHANNELS 3 Zrotation Xrotation Yrotation
                JOINT lRing2
                {
                  OFFSET 2.60934 -0.819778 -0.0198488
                  CHANNELS 3 Zrotation Xrotation Yrotation
                  End Site
                  {
                    OFFSET 2.33842 -0.294052 0.168128
                  }
                }
              }
              JOINT lPinky1
              {
                OFFSET 8.27202 -0.0477905 -0.4584
                CHANNELS 3 Zrotation Xrotation Yrotation
                JOINT lPinky2
                {
                  OFFSET 1.82734 -0.647385 -0.700984
                  CHANNELS 3 Zrotation Xrotation Yrotation
                  End Site
                  {
                    OFFSET 1.69225 -0.51767 -0.607171
                  }
                }
              }
            }
          }
        }
      }
    }
  }
  JOINT rButtock
  {
    OFFSET -8.77824 4.35084 1.2192
    CHANNELS 3 Zrotation Xrotation Yrotation
    JOINT rThigh
    {
      OFFSET 0 -1.70687 -2.19456
      CHANNELS 3 Zrotation Xrotation Yrotation
      JOINT rShin
      {
        OFFSET 0 -36.8199 0.73152
        CHANNELS 3 Zrotation Xrotation Yrotation
        JOINT rFoot
        {
          OFFSET 0.73152 -45.1104 -5.12064
          CHANNELS 3 Zrotation Xrotation Yrotation
          End Site
          {
            OFFSET -1.1221 -3.69964 12.103
          }
        }
      }
    }
  }
  JOINT lButtock
  {
    OFFSET 8.77824 4.35084 1.2192
    CHANNELS 3 Zrotation Xrotation Yrotation
    JOINT lThigh
    {
      OFFSET 0 -1.70687 -2.19456
      CHANNELS 3 Zrotation Xrotation Yrotation
      JOINT lShin
      {
        OFFSET 0 -36.8199 0.73152
        CHANNELS 3 Zrotation Xrotation Yrotation
        JOINT lFoot
        {
          OFFSET -0.73152 -45.1104 -5.12064
          CHANNELS 3 Zrotation Xrotation Yrotation
          End Site
          {
            OFFSET 1.1221 -3.69964 12.103
          }
        }
      }
    }
  }
}
MOTION
Frames:	5
Frame Time:	0.03333
-19.142 55.6822 18.626 1.350416 -17.272975 4.864516 -8.639134 16.239419 2.085028 -1.442743 -9.052261 -5.66961 8.308372 21.606911 -170.126648 -9.738346 32.259328 -131.325813 163.690702 1.164922 -8.116253 0.549707 0.230754 45.542647 -153.699119 -17.673309 171.135451 12.52593 -61.511882 65.142407 -10.36006 76.730329 -120.837867 -146.700725 14.533228 126.499996 -9.910079 21.189788 9.660393 -113.795389 -23.948827 97.470734 -153.86224 -40.25399 106.761462 13.090333 18.860258 39.669573 -58.597679 78.025165 82.158708 150.269567 23.76845 167.820166 -74.600992 61.153465 85.099267 75.063611 -48.798669 22.124425 -106.017951 -41.070382 -98.014361 -134.227479 -19.109935 -110.00718 144.376556 37.173672 -143.058434 -124.594416 -36.367497 -141.185469 -2.63828 -59.500133 -69.951251 -4.558537 -27.644272 0.029778 170.039065 -12.68217 -91.813727 46.54626 23.279352 -31.269425 107.489495 -71.350311 141.011355 112.361498 5.778618 -171.458117 140.318192 -13.199215 -134.822934 138.256513 -72.651463 -130.162765 69.247404 19.432967 -40.557745 112.508051 -48.981388 162.776813 152.244788 -69.926145 90.393265 118.108918 -8.318734 9.996872 -113.704266 71.32899 -41.882231 125.957417 -18.631968 -180.0 90.525621 -68.694342 122.550158 -58.267659 29.499751 176.753846 88.431245 16.758717 64.777384 -30.840984 43.360445 -138.988135 -44.836298 -1.51755 -100.218522 170.147652 8.548907 144.509726
-19.469 55.749700000000004 19.4694 1.458023 -16.624006 5.090643 -5.912153 13.761639 -86.552328 6.411052 -4.04721 82.195835 17.829142 8.555843 82.24024 -17.701965 -7.007938 -29.217133 168.226957 -0.132563 1.285689 -2.879301 -1.337046 49.809783 -153.360556 -26.380276 173.031163 42.103899 -71.747017 91.700181 -112.324114 -6.39819 -20.238863 -150.756202 -67.491271 177.458174 165.012769 -39.186963 76.73334 -163.678477 1.729904 113.730874 -160.748186 -46.549713 102.618078 -153.559835 -26.148496 71.438364 -66.256687 79.226419 89.966538 -77.428575 -66.3437 -61.073821 -77.761281 61.722548 88.606108 -121.103351 -15.458118 152.882183 -142.995964 -3.228418 -132.864596 -143.33545 -38.365096 -121.786734 -6.137342 -56.563885 4.180755 125.258482 -8.390132 155.274953 -6.021872 -7.558179 102.979509 170.158633 26.334227 -140.857246 -171.72414 -31.065349 -87.413987 71.421699 23.031679 -59.902267 55.268034 -67.302325 87.78329 -72.257277 7.085046 44.792871 115.986162 24.942655 -123.140383 -72.232127 58.097683 42.36373 113.777645 43.296464 -80.605193 135.244642 -30.062663 -165.372831 70.531615 -45.336166 0.971195 -62.436354 -0.197869 98.790118 147.883829 74.727677 33.050877 149.319499 -4.382379 -180.0 16.452437 -76.479373 -157.174574 -179.521606 -31.133869 -6.244544 32.561603 80.733643 180.0 -9.702829 74.212594 9.291143 11.341377 -43.842844 -21.462937 -53.004993 -23.921233 -140.633949
-19.7879 55.5789 20.4365 1.405122 -16.258315 4.312566 -8.423047 16.485511 2.067504 -1.088243 -8.603318 -6.492785 16.538596 10.261566 93.550395 -19.579308 -5.254701 -36.500476 179.845209 -0.016713 12.32515 -7.055561 -3.08956 47.253234 2.059181 -23.477771 -11.427237 29.127618 -4.270001 -47.733929 -89.256306 -50.829004 123.626319 -159.719642 -22.273694 144.225833 7.472824 7.388355 4.866561 -0.732095 6.601965 13.909857 -38.920812 29.270713 53.412644 -178.662555 46.899937 171.51952 30.269092 0.073224 -18.531919 168.202 2.948814 96.637383 -74.642425 -85.125324 -80.83196 134.905422 42.513457 -147.702143 -148.840662 4.952273 -133.415528 -22.82737 0.884772 0.403747 -2.94121 -27.137157 1.093645 119.084028 -9.974414 173.210928 -178.258958 29.558758 108.202824 -2.741278 -22.954354 1.029709 -12.781133 -5.99388 5.445304 -179.191333 -21.933625 -87.635672 153.744198 54.829966 -131.105764 124.955125 73.74903 -39.346904 -163.265017 -67.605217 -102.561773 174.129558 -24.674228 -82.76937 42.840376 -18.428443 -29.997168 149.154449 10.998554 151.448984 -165.093081 45.635279 178.103203 -158.304649 -22.762466 -107.863418 145.534886 73.480262 35.600294 150.109533 -2.84065 -85.072266 -76.423364 -3.53222 58.178476 -91.3803 -67.885066 15.465982 -19.90435 21.431185 -70.304006 31.058764 49.858935 -0.0 -30.171422 0.939784 90.007912 -121.036015 -27.9092 -12.231174
-20.1011 55.3969 21.4576 1.187028 -17.551556 3.848518 -7.204998 12.123538 -148.954898 3.795142 2.58722 145.002707 5.410717 1.574947 10.66961 15.891981 -12.37802 49.359016 -172.256319 1.099332 16.136213 -4.771112 -1.933178 44.094725 -154.05551 -15.512134 169.876562 165.948255 36.674012 134.650616 -12.144936 45.28507 112.89579 -21.134779 -42.182177 -26.273992 -170.895564 -20.932439 85.386321 -35.933211 -28.298322 -8.336551 -3.747655 20.099506 26.937944 29.671293 79.652362 -80.905048 12.277394 59.935032 3.814417 75.453051 -80.493539 97.441142 -8.826801 -63.394388 -6.227951 12.881949 24.371066 -53.373988 -32.567649 -31.278561 -28.386958 153.328287 68.274217 -90.327488 150.867899 19.391965 -151.631197 108.691715 65.570163 -74.779029 159.285249 -55.714276 -89.937491 174.289101 16.805905 -142.707458 1.433465 7.236501 2.71451 -18.443204 -58.971249 -10.300058 155.41731 54.297495 -133.312234 95.13676 71.29199 -12.680198 67.293199 49.655445 -84.998869 -178.597828 28.859677 153.353789 42.28899 -18.700789 -29.141833 -123.309215 62.252451 99.85692 68.109834 -45.759127 -0.255073 -165.561428 -14.93974 43.54956 144.191209 72.439283 37.115555 149.667545 -4.50718 180.0 17.548577 -75.923823 -155.637359 -9.290385 -7.192211 21.614134 -26.163188 46.28307 -84.509098 37.989691 58.573591 -121.030907 37.945954 -20.238367 92.697724 147.117244 -2.223175 -178.194005
-20.4028 55.2118 22.467699999999997 1.117075 -18.403036 3.632577 -10.223269 16.198189 32.882606 -3.843398 -7.625048 -35.425114 15.371175 9.364276 87.849688 -16.40249 -8.08858 -31.183911 -164.760718 1.82964 13.6135 -4.555907 -1.524878 36.995 -77.422184 73.778114 82.259514 71.275939 -7.515189 41.24942 -3.405783 -17.822027 99.644497 -20.667212 -38.963698 -23.999161 -174.04445 -23.27808 85.374412 -77.559159 15.660719 22.877348 -121.877393 -6.370172 108.810101 -97.563318 12.618889 126.532268 -129.800946 -61.598879 172.232111 34.35077 51.80155 5.804616 -19.063158 -76.062596 -18.640535 126.659279 42.40125 -130.125051 -153.169449 14.966636 -134.997548 -5.36261 53.419098 9.393227 -6.970736 -44.307336 1.803501 -52.232142 18.85579 21.17529 -60.394907 -15.818523 -93.936708 11.237845 21.81705 -1.414113 -100.371746 -54.280582 -44.017016 -82.275711 -63.4178 -37.522142 87.503964 -68.287054 121.985944 36.938733 -70.435581 144.227991 24.875995 48.467637 -47.710093 26.524206 -1.487296 57.657742 44.20273 -18.779613 -28.865501 151.745574 11.499777 149.093507 109.734553 70.807968 -89.998795 50.250699 -14.18602 -169.429351 -100.318253 67.74634 -46.82124 119.008396 -22.518056 49.838657 67.765728 68.728811 -150.496088 141.698116 -40.87462 -117.399666 38.865506 82.739291 -180.0 4.484426 73.052123 175.312862 -20.893919 33.878435 -99.440712 -13.319228 45.101114 136.910481
